<?xml version="1.0" encoding="utf-8"?>
<svg version="1.1" xmlns="http://www.w3.org/2000/svg" viewBox="0 0 280 56">
    <g fill="#fff" transform="translate(-6 -1) scale(0.21)">
        <path d="M147.5,123.3l-1.7,1c-3.7,2-7,3.4-9.9,4c-3,0.6-7.9,1-14.6,1.2c-11.2,0.3-18.5,2.1-22.3,5.4c-3.8,3.4-5.7,9.8-5.7,19.7
            v4.6l2.4-1.8c2.9-2.2,7.6-3.5,14-4c0.2,2.1,0.3,4,0.3,5.6c0,8.9-1.6,12.3-3,13.6c-2,1.9-4.9,2.8-8.5,2.8
            c-8.7,0-15.7-4.3-21.5-13.3c-5.9-9-8.9-20.5-8.9-34.2c0-13.2,2.7-23.8,7.9-31.6c5.2-7.7,12.1-11.5,20.9-11.5c4.6,0,9.1,1.4,13.5,4
            c4.3,2.7,7.4,5.9,9,9.5l0.6,1.3l1.3-0.5c7.8-3.2,11.8-9.1,11.8-17.7c0-6-3.3-11-9.8-15c-6.3-3.9-14-5.8-23.1-5.8
            c-17.2,0-31.6,6.1-42.8,18.2c-12.6,13.5-19,30.6-19,50.9c0,20.3,5.3,36.9,15.8,49.4c10.6,12.6,24.6,19,41.7,19
            c10.1,0,18.7-2,25.7-6l8-4.6l4.7-2.2c1.7-0.8,3.8-2.7,3.8-7h-1.5c0,0,0,0,0,0v0l1.5-0.2c0-0.1-0.1-0.5-0.4-3.2
            c-0.6-4.5-0.8-9.9-0.8-16.1V151c5.7-0.9,9.4-3.9,11.1-8.7c0.7-2,1-4.5,1-7.4c0-3.3-0.4-6.6-1.2-9.7L147.5,123.3z"/>
        <path d="M239.8,170.2l-1.7,2.1c-1.4,1.7-3.2,2.5-5.4,2.5c-1.9,0-7.9,0-7.9-13.9c0-5.2,0.6-10.1,1.6-14.4l1.5-6l0-0.1
            c0.3-2.5,0.4-3.3,0.4-3.7c0-1.3-0.5-4.4-5.5-4.4v1.5l0,0l-0.2-1.5c0,0-0.1,0-0.5,0.1c0.4-1,0.5-1.9,0.5-3c0-2.6-1-6.6-3.2-12.2
            c-4-10.7-11.8-16.2-23.1-16.2c-10.8,0-20.6,5.5-28.9,16.5c-8.3,10.8-12.5,23.3-12.5,37.1c0,11.3,2.9,20.9,8.5,28.7
            c5.8,7.9,13,12,21.4,12c9.3,0,16.7-4.2,22.1-12.5c3.3,8.7,9.2,13.1,17.7,13.1c4.8,0,8.9-1.8,12.1-5.4c3.2-3.5,4.8-8,4.8-13.2
            c0-1.3-0.3-2.8-0.8-4.5L239.8,170.2z M188.5,173.5c-2.9,0-5.1-1.6-6.9-4.8c-1.9-3.5-2.9-8.3-2.9-14.4c0-8.5,1.6-16.1,4.9-22.6
            c3.1-6.2,6.5-9.3,10.3-9.3c1.7,0,3.1,0.8,4.4,2.4c1.4,1.7,2,3.7,2,6.1v4.2c0,2.4,1,4.2,2.8,5.1c-0.3,0.5-0.4,1.1-0.6,1.7
            c-0.3,1.4-0.9,4.4-1.6,9.4C198.5,166,194.4,173.5,188.5,173.5z"/>
        <path d="M377.9,170.1l-1.9,2.1c-2.4,2.6-5.2,3.9-8.5,3.9c-2.3,0-5.6-0.7-6.4-6.4c-0.4-2.5-0.5-5.8-0.5-9.7c0-3.2,0.1-6.7,0.2-10.5
            c0.3-7.9,0.4-12.9,0.4-15.2c0-16.9-6.3-25.5-18.8-25.5c-7.3,0-13.3,2.4-17.9,7c-4.4,4.5-7.7,8.5-10,12c-2.7-10.7-8-16.1-15.8-16.1
            c-9.7,0-19.2,6.9-28.2,20.4c0.2-3.6,0.6-8,1.3-13c0.6-5.4,0.9-9.1,0.9-11.2c0-8.2-4.9-9.4-7.9-9.4c-4.3,0-8.8,1.8-13.6,5.5
            c-4.6,3.6-6.5,4.6-7.2,4.9c-1.1,0.2-2.2,0.4-2.1,1.8l0.1,1.4h0.5c0.8,1.6,1.4,3.4,1.8,5.3c1,5.8,1.5,14.2,1.5,25.1
            c0,6.9-0.3,14-0.7,21.1c-0.4,5.3-0.6,9.7-0.6,13.3c0,5.6,1.1,10.3,3.1,14c2.2,4,5.2,6,8.9,6c3.9,0,8-2.2,12.2-6.6
            c1.8-1.9,2.8-3.8,2.8-5.6c0-0.8-0.1-2-0.3-3.5c-0.2-1.3-0.3-2.4-0.3-3.1c0-10.1,4.1-21.1,12.1-32.7c3.3-4.9,5.5-5.9,6.8-5.9
            c1.8,0,2.9,3.7,2.9,10c0,6.1-0.5,15.1-1.6,26.8c-0.4,4.4-0.6,7.9-0.6,10.4c0,6.5,4.1,7.5,6.5,7.5c1.8,0,4.7-0.8,8.9-2.4
            c2.3-0.8,4.6-1.9,6.7-3.1c2.6-1.5,3.9-4.1,3.9-7.7l0-0.8l-0.2-3v-1.1c0-1.3,0.3-4.3,0.9-8.9c0.7-4.9,1.4-8.8,2.1-11.6
            c1.4-5.6,4-10.8,7.6-15.4c2.2-2.8,4.1-4.2,5.7-4.2c0.5,0,2,0,2,4.4l-0.9,20.2v3.5c0,21.3,7.4,32.2,22,32.2
            c6.2,0,11.6-2.1,16.1-6.3c4.5-4.2,6.7-9.3,6.7-15.2c0-0.6-0.1-1.2-0.2-1.9L377.9,170.1z"/>
        <path d="M444.6,163.8l-1.1-2.1l-1.4,1.9c-2.5,3.4-5.8,6.3-9.8,8.6c-3.9,2.3-7.8,3.4-11.3,3.4c-7.8,0-12.5-4.7-14.4-14.3
            c9.6-2.8,17.5-7.4,23.5-13.7c6.4-6.7,9.7-14.1,9.7-22c0-7.6-2.5-14-7.3-19.1c-4.9-5.1-11-7.7-18.2-7.7c-10.1,0-18.8,5-25.7,14.7
            c-6.9,9.6-10.4,21.5-10.4,35.3c0,13.8,3.5,25.3,10.3,34.2c7,9,16,13.5,26.9,13.5c8.2,0,15.4-2.5,21.5-7.5c6.2-5,9.3-11,9.3-17.8
            C446.2,168.5,445.7,165.9,444.6,163.8z M413.1,121.3c2.5,0,5.4,0.8,5.4,6.8c0,7.4-4.9,12.5-14.9,15.6c-0.4-1.9-0.6-3.6-0.6-5.2
            c0-4.8,1.1-8.9,3.2-12.3C408.2,122.9,410.5,121.3,413.1,121.3z"/>
        <path d="M498.4,141.1c-14.1-8.8-18.2-12.2-19.2-13.6c-0.5-0.6-0.7-1.3-0.7-2c0-2.4,0.8-5.6,8.2-5.6c4,0,8.1,1.1,12.1,3.3
            c4,2.2,6.9,4.9,8.8,8.1l1,1.6l1.4-1.3c1.4-1.3,2.6-2.6,3.6-4c2.9-3.6,4.4-6.6,4.4-9.2c0-5.1-3.2-9.4-9.6-12.7
            c-6-3.1-13.7-4.7-22.9-4.7c-9.7,0-17.9,2.4-24.2,7.2c-6.5,4.9-9.7,11.2-9.7,18.7c0,9.4,5.5,17.7,16.2,24.7l12.5,8.1
            c5.1,3.3,6.7,4.5,7.2,4.9c2.4,2.1,3.6,4.2,3.6,6.3c0,1.9-0.7,3.4-2.1,4.6c-1.4,1.3-3.3,1.9-5.6,1.9c-3.8,0-7.5-0.8-11.1-2.5
            l-5.7-2.7c-1.6-0.7-3.1-1.1-4.5-1.1c-3.5,0-6.7,1.7-9.6,4.9l-5.6,6.3l-2,2l2.1,0.8c0.2,0.1,0.4,0.2,0.6,0.2c1.9,1.1,4,2.3,6.1,3.7
            c10,6.4,20.7,9.6,31.6,9.6c9.9,0,18.1-2.6,24.1-7.9c6.1-5.3,9.2-12.4,9.2-21.1c0-6.2-2-11.8-5.9-16.7
            C510,149.4,505.1,145.4,498.4,141.1z"/>
        <path d="M561.3,171.4c-2.7-2.1-6.2-3.2-10.5-3.2c-5.7,0-10.8,1.6-15.2,4.9c-4.5,3.3-6.8,7.3-6.8,11.8c0,3.7,1.4,6.6,4.2,8.9
            c2.7,2.1,6.2,3.2,10.5,3.2c6.1,0,11.3-1.6,15.5-4.7c4.3-3.2,6.5-7.2,6.5-12C565.5,176.6,564,173.6,561.3,171.4z"/>
        <path d="M633.2,160l-0.9,2c-1.7,3.8-4.9,7-9.3,9.7c-4.4,2.7-8.9,4-13.2,4c-5.1,0-9-2.1-11.9-6.4c-3-4.4-4.6-10.7-4.6-18.6
            c0-7.8,1.5-14.4,4.3-19.6c2.7-4.9,6-7.3,9.9-7.3c2.2,0,4.2,1,5.9,3.1c1.8,2.2,2.7,4.6,2.7,7.5c0,0.3-0.1,0.6-0.2,1l-0.7,1.7
            l1.8,0.4c1.9,0.4,3.2,0.6,4.2,0.6c3.9,0,7.3-1.6,9.9-4.7c2.6-3,3.9-6.8,3.9-11.3c0-6.4-2.5-11.8-7.5-16c-4.9-4.2-11-6.4-18.2-6.4
            c-11.6,0-21.5,5.2-29.4,15.5c-7.9,10.2-11.8,22.8-11.8,37.5c0,13.7,3.4,24.7,10.1,32.6c6.7,7.9,16.1,12,27.9,12
            c9,0,16.7-2.6,22.8-7.7c6.2-5.2,9.3-11.6,9.3-19.2c0-3.6-1.1-6.5-3.3-8.7L633.2,160z"/>
        <path d="M681.6,100c-4.4,0-9.1,1-14.1,2.9c-5,2-8.6,4.3-10.9,7l-0.6,0.7l1.6,4.3c-4.2,2.6-7.7,7.1-10.6,13.6
            c-3.1,6.9-4.6,14.4-4.6,22.1c0,13.5,3.8,24.8,11.4,33.5c7.6,8.8,17.4,13.2,29.1,13.2c11.9,0,21.5-4.4,28.7-13.1
            c7.1-8.6,10.7-20.2,10.7-34.5c0-14.2-3.9-26.2-11.4-35.5C703.1,104.8,693.3,100,681.6,100z M668.8,146.4c0-7.1,1.3-12.9,3.8-17.1
            c2.4-4,5.4-6,9.4-6c4.3,0,7.8,2.7,10.9,8.4c3.2,5.8,4.8,13.1,4.8,21.6c0,15.1-4.2,22.5-12.8,22.5c-4.7,0-8.4-2.5-11.4-7.8
            C670.4,162.7,668.8,155.4,668.8,146.4z"/>
        <path d="M761.6,171.4c-2.7-2.1-6.2-3.2-10.5-3.2c-5.7,0-10.8,1.6-15.2,4.9c-4.5,3.3-6.8,7.3-6.8,11.8c0,3.7,1.4,6.6,4.2,8.9
            c2.7,2.1,6.2,3.2,10.5,3.2c6.1,0,11.3-1.6,15.5-4.7c4.3-3.2,6.5-7.2,6.5-12C765.7,176.6,764.3,173.6,761.6,171.4z"/>
        <path d="M852.7,171.8l-1.7,0.9c-1.2,0.6-2.4,0.9-3.7,0.9c-4.5,0-6.8-5.4-6.8-16.1c0-10,1.2-21.1,3.6-33.1
            c1.2-5.9,1.7-9.5,1.7-11.1c0-4.3-2.4-6.7-6.8-6.7c-3.5,0-7.4,1.3-11.4,3.9c-6,3.8-8.2,5-9,5.4c-0.5,0.1-1,0.3-1.7,0.7
            c-0.9,0.5-1.7,0.9-1.7,1.9c0,0.4,0.1,1,0.7,2.3c0,0.1,0.3,0.7,0.4,3.9l0.2,5.1v1.3c0,10.6-1.6,20.1-4.7,28.2
            c-2.9,7.6-6.2,11.5-9.8,11.5c-3.8,0-5.7-4.7-5.7-14.1c0-4.7,0.3-10.5,0.9-17.3l0.4-4.1c0.6-6.9,1.1-11.3,1.3-13.2
            c0.6-4.9,0.9-8.7,0.9-11.2c0-8.5-4.2-10.3-7.8-10.3c-2.6,0-5.5,1.2-8.9,3.8c-5.1,3.7-7,4.9-7.8,5.2c-4.2,1.8-5.9,3.3-5.9,5v0.4
            l0.2,0.3c0.1,0.2,0.2,0.4,0.3,0.6c1.7,5.3,2.5,11.4,2.5,18.1c0,4.1-0.4,11-1.1,20.6c-0.4,4.9-0.6,9.3-0.6,13.2
            c0,8.1,2.2,14.8,6.6,19.8c4.4,5.1,10.4,7.7,17.6,7.7c9,0,17.4-4.8,25.1-14.4c3.9,9.2,9.8,13.8,17.7,13.8c4.7,0,8.5-1.6,11.5-4.8
            c2.9-3.1,4.4-7.3,4.4-12.3c0-1.1-0.2-2.5-0.6-4.2L852.7,171.8z"/>
        <path d="M950.5,173.9l-0.8-3l-1.8,2.5c-1.5,2.1-3.7,3.1-6.7,3.1c-3.3,0-6.6-2.6-9.9-7.7l-5.2-8.1c-5.2-8.1-10.6-13.8-16-16.8
            c6.4-4.2,12.9-9.9,19.5-16.9c5.2-5.6,7.9-11,7.9-16c0-4.9-2.9-7.6-8.1-7.6c-2.1,0-4.1,0.3-6.1,0.8c-6.9,1.9-8.2,2.1-8.4,2.1h-2.5
            v2.8c0,3.7-2.7,8.6-8.1,14.6c-5.3,5.9-12.3,11.7-20.8,17.3c-0.2-1.9-0.3-4.1-0.3-6.6c0-12,2.3-30.1,6.9-53.8
            c0.9-4.8,1.3-8.2,1.3-10.3c0-8.5-5.3-9.7-8.5-9.7c-3.8,0-8.1,1.8-13,5.4c-5.9,4.4-8.3,5.8-9.3,6.2l-0.2,0.1h-2.7l1.8,2.4
            c0.7,0.9,1.5,3,1.5,7.9v12.9c0,3.7-0.4,10.9-1.2,21.3c-0.9,12.2-1.3,22-1.3,29.1c0,12,0.5,22.5,1.5,31.1c0.4,3.2,0.9,6,1.4,8.3
            c1.9,7.5,5.7,11.3,11.2,11.3c8.3,0,14.4-3.7,18.2-10.9l0.5-1l-0.8-0.8c-2.3-2.3-3.9-6.6-4.9-12.6l-1.4-9l7.5-4.5
            c3,2.6,5.9,6,8.6,10.3l9.3,14c6.6,10,14.1,15.1,22.3,15.1c5.6,0,10.3-1.6,13.9-4.9c3.7-3.3,5.6-7.5,5.6-12.6
            C951.5,178.3,951.2,176.3,950.5,173.9z"/>
    </g>
</svg>
